<svg id="Laag_1" data-name="Laag 1" xmlns="http://www.w3.org/2000/svg" viewBox="0 0 1440 450"><defs><style>.cls-1{fill:none;}.cls-2{fill:#0070bd;}.cls-3{fill:#001e3a;}</style></defs><line class="cls-1" x1="549.21" x2="832.04"/><line class="cls-2" x1="939.67" y1="450" x2="757.83" y2="450"/><line class="cls-2" x1="623.42" y1="450" x2="441.61" y2="450"/><line class="cls-2" x1="366.99" x2="549.21"/><line class="cls-2" x1="832.04" x2="1014.3"/><polygon class="cls-1" points="1440 0 1014.3 0 1080.91 171.43 898.28 171.43 832.04 0 549.21 0 482.97 171.43 300.38 171.43 366.99 0 0 0 0 450 441.61 450 584.19 83.05 797.1 83.05 939.67 450 1440 450 1440 0"/><polygon class="cls-1" points="623.42 450 757.83 450 690.63 276.06 623.42 450"/><polygon class="cls-3" points="584.19 83.05 441.61 450 623.42 450 690.63 276.06 757.83 450 939.67 450 797.1 83.05 584.19 83.05"/><polygon class="cls-3" points="482.97 171.43 549.21 0 366.99 0 300.38 171.43 482.97 171.43"/><polygon class="cls-3" points="898.28 171.43 1080.91 171.43 1014.3 0 832.04 0 898.28 171.43"/></svg>