<svg id="Laag_1" data-name="Laag 1" xmlns="http://www.w3.org/2000/svg" viewBox="0 0 1738.64 320.98"><defs><style>.cls-1{fill:#ff7300;}</style></defs><path class="cls-1" d="M386.14,186.51H442.7l8.76,24.78H479L430.39,73.61H396.77L348.58,211.29h29.31Zm27.72-81.63,19.89,56.24H395Z" transform="translate(-73.57 -70.84)"/><polygon class="cls-1" points="507.89 114.49 449.85 114.49 449.85 83.6 501.97 83.6 501.97 58.02 449.85 58.02 449.85 28.71 506.9 28.71 506.9 2.76 422.71 2.76 422.71 140.44 507.89 140.44 507.89 114.49"/><path class="cls-1" d="M678.83,159.36a45.39,45.39,0,0,0,19.27-16.43,41.92,41.92,0,0,0,7.27-23.69,45.63,45.63,0,0,0-45.82-45.63H604.48V211.29h27.13v-47.8h20.57L680,211.29h29.31Zm-6.1-25.67a17.3,17.3,0,0,1-13.18,6H631.61V99h27.94a17.42,17.42,0,0,1,13.18,5.91,20.27,20.27,0,0,1,5.5,14.36A20.61,20.61,0,0,1,672.73,133.69Z" transform="translate(-73.57 -70.84)"/><rect class="cls-1" x="655.61" y="2.76" width="27.13" height="137.69"/><path class="cls-1" d="M821.65,73.61,773.46,211.29h29.31L811,186.51h56.56l8.75,24.78h27.53L855.27,73.61Zm-1.79,87.51,18.88-56.24,19.88,56.24Z" transform="translate(-73.57 -70.84)"/><polygon class="cls-1" points="927.25 114.49 874.73 114.49 874.73 2.76 847.59 2.76 847.59 140.44 927.25 140.44 927.25 114.49"/><path class="cls-1" d="M1109,73.61l-48.19,137.68h29.31l8.26-24.78H1155l8.74,24.78h27.53L1142.65,73.61Zm-1.77,87.51,18.88-56.24L1146,161.12Z" transform="translate(-73.57 -70.84)"/><path class="cls-1" d="M1268.92,97.2a43.14,43.14,0,0,1,21.25,5.22,36.23,36.23,0,0,1,14.55,14.46l23.41-13.57a64,64,0,0,0-24.69-23.71,70.19,70.19,0,0,0-34.52-8.76q-31.08,0-51.34,20.56t-20.25,51q0,30.3,20.25,50.95t51.34,20.66a70.12,70.12,0,0,0,34.62-8.75,64.11,64.11,0,0,0,24.59-23.72L1304.72,168a35.31,35.31,0,0,1-14.44,14.26,43.89,43.89,0,0,1-21.36,5.21q-20.07,0-32.35-12.59t-12.3-32.46q0-20,12.3-32.64T1268.92,97.2Z" transform="translate(-73.57 -70.84)"/><path class="cls-1" d="M1412.72,97.2a43.18,43.18,0,0,1,21.24,5.22,36.38,36.38,0,0,1,14.56,14.46l23.4-13.57a64,64,0,0,0-24.68-23.71,70.27,70.27,0,0,0-34.52-8.76q-31.1,0-51.35,20.56t-20.26,51q0,30.3,20.26,50.95t51.35,20.66a70.16,70.16,0,0,0,34.61-8.75,64.18,64.18,0,0,0,24.59-23.72L1448.52,168a35.32,35.32,0,0,1-14.47,14.26,43.83,43.83,0,0,1-21.33,5.21q-20.07,0-32.37-12.59t-12.29-32.46q0-20,12.29-32.64T1412.72,97.2Z" transform="translate(-73.57 -70.84)"/><polygon class="cls-1" points="1446.14 83.6 1498.26 83.6 1498.26 58.02 1446.14 58.02 1446.14 28.71 1503.19 28.71 1503.19 2.76 1419.01 2.76 1419.01 140.44 1504.18 140.44 1504.18 114.49 1446.14 114.49 1446.14 83.6"/><path class="cls-1" d="M1692.72,153.08a27,27,0,0,0-6-6.89,66.76,66.76,0,0,0-7-5.32,53.07,53.07,0,0,0-8.66-4.23q-5.6-2.25-8.85-3.34t-9.53-3q-15.37-4.74-20.77-8.76a12.53,12.53,0,0,1-5.41-10.52,12.14,12.14,0,0,1,4.82-9.93c3.22-2.57,7.64-3.85,13.29-3.85q18.09,0,26.35,17.71l22.82-13.18A54.85,54.85,0,0,0,1674,79q-12.69-8.16-29.4-8.17-18.69,0-32,11.12t-13.27,29.8a38.42,38.42,0,0,0,3.33,16.52,30.21,30.21,0,0,0,9.74,11.71,67.2,67.2,0,0,0,12.79,7.37,140.75,140.75,0,0,0,15.64,5.51q16.71,4.74,23.21,8.75t6.49,11.31a12.71,12.71,0,0,1-5.32,10.43q-5.3,4.13-16.71,4.13-23.6,0-31.66-21.05L1593.68,180a48.92,48.92,0,0,0,19.68,24.88q14,9.14,34.41,9.15,22.23,0,36.09-11.21t13.88-30.29a38.77,38.77,0,0,0-1.48-10.93A37.85,37.85,0,0,0,1692.72,153.08Z" transform="translate(-73.57 -70.84)"/><path class="cls-1" d="M1810.74,161.62a38.8,38.8,0,0,0-3.54-8.54,26.88,26.88,0,0,0-6-6.89,65.73,65.73,0,0,0-7-5.32,54,54,0,0,0-8.64-4.23c-3.76-1.5-6.7-2.62-8.85-3.34s-5.36-1.74-9.56-3q-15.33-4.74-20.74-8.76A12.53,12.53,0,0,1,1741,111a12.11,12.11,0,0,1,4.82-9.93q4.82-3.85,13.28-3.85,18.09,0,26.35,17.71l22.82-13.18A55,55,0,0,0,1788.52,79q-12.7-8.16-29.41-8.17-18.7,0-32,11.12t-13.28,29.8a38.27,38.27,0,0,0,3.35,16.52A30,30,0,0,0,1727,140a67.07,67.07,0,0,0,12.77,7.37,143.73,143.73,0,0,0,15.64,5.51q16.73,4.74,23.22,8.75t6.49,11.31a12.7,12.7,0,0,1-5.31,10.43q-5.31,4.13-16.72,4.13-23.61,0-31.67-21.05L1708.15,180a49,49,0,0,0,19.68,24.88q14,9.14,34.42,9.15,22.23,0,36.1-11.21t13.86-30.29A39.14,39.14,0,0,0,1810.74,161.62Z" transform="translate(-73.57 -70.84)"/><path class="cls-1" d="M440.27,330.85a27.36,27.36,0,0,0-6-6.89,66.5,66.5,0,0,0-7-5.31,53,53,0,0,0-8.66-4.24c-3.73-1.49-6.68-2.62-8.85-3.33s-5.34-1.74-9.53-3.05q-15.36-4.72-20.77-8.75a12.55,12.55,0,0,1-5.4-10.53,12.11,12.11,0,0,1,4.81-9.92q4.83-3.85,13.29-3.85,18.09,0,26.35,17.7l22.82-13.17a54.85,54.85,0,0,0-19.77-22.72q-12.69-8.16-29.4-8.17-18.69,0-32,11.12t-13.27,29.8a38.19,38.19,0,0,0,3.34,16.51A30,30,0,0,0,360,317.76a67.1,67.1,0,0,0,12.8,7.39,143.6,143.6,0,0,0,15.64,5.5q16.69,4.73,23.2,8.75t6.49,11.3a12.7,12.7,0,0,1-5.31,10.43q-5.31,4.14-16.72,4.13-23.6,0-31.66-21L341.23,357.8a48.92,48.92,0,0,0,19.68,24.88q13.95,9.12,34.41,9.15,22.23,0,36.1-11.21t13.87-30.3a39.43,39.43,0,0,0-5-19.47Z" transform="translate(-73.57 -70.84)"/><polygon class="cls-1" points="435.58 237.86 405.75 180.54 375.06 180.54 422.07 264.53 422.07 318.22 449.02 318.22 449.02 264.52 496.23 180.54 465.54 180.54 435.58 237.86"/><path class="cls-1" d="M671,330.85a27.62,27.62,0,0,0-6-6.89,64.49,64.49,0,0,0-7-5.31,53.48,53.48,0,0,0-8.64-4.24c-3.75-1.49-6.7-2.62-8.85-3.33s-5.35-1.74-9.55-3.05q-15.33-4.72-20.75-8.75a12.55,12.55,0,0,1-5.4-10.53,12.1,12.1,0,0,1,4.82-9.92q4.82-3.85,13.28-3.85,18.09,0,26.35,17.7l22.82-13.17a54.93,54.93,0,0,0-19.77-22.72q-12.69-8.16-29.4-8.17-18.7,0-32,11.12t-13.28,29.8A38,38,0,0,0,581,306.05a29.8,29.8,0,0,0,9.74,11.71,66.9,66.9,0,0,0,12.77,7.39,146.71,146.71,0,0,0,15.64,5.5q16.71,4.73,23.22,8.75t6.49,11.3a12.67,12.67,0,0,1-5.31,10.43c-3.54,2.76-9.13,4.13-16.73,4.13q-23.61,0-31.67-21L572,357.8a49,49,0,0,0,19.67,24.88q14,9.12,34.43,9.15,22.23,0,36.1-11.21T676,350.32a39.15,39.15,0,0,0-5-19.47Z" transform="translate(-73.57 -70.84)"/><polygon class="cls-1" points="608.93 206.49 645.91 206.49 645.91 318.22 673.06 318.22 673.06 206.49 710.24 206.49 710.24 180.54 608.93 180.54 608.93 206.49"/><polygon class="cls-1" points="756.46 261.38 808.58 261.38 808.58 235.8 756.46 235.8 756.46 206.49 813.51 206.49 813.51 180.53 729.33 180.53 729.33 318.22 814.5 318.22 814.5 292.26 756.46 292.26 756.46 261.38"/><polygon class="cls-1" points="904.92 245.54 865.43 180.54 837.51 180.54 837.51 318.22 864.65 318.22 864.65 229.25 903.3 292.9 906.47 292.8 945.3 228.91 945.3 318.22 972.25 318.22 972.25 180.54 944.2 180.54 904.92 245.54"/><polygon class="cls-1" points="64.34 151.87 0 317.44 41.39 317.44 88.47 195.63 135.54 317.44 176.92 317.44 112.58 151.87 64.34 151.87"/><polygon class="cls-1" points="64.34 6.34 0 171.9 41.39 171.9 88.47 50.1 135.54 171.9 176.92 171.9 112.58 6.34 64.34 6.34"/></svg>