<svg id="Laag_1" data-name="Laag 1" xmlns="http://www.w3.org/2000/svg" viewBox="0 0 1801 320.77"><defs><style>.cls-1{fill:#fff;}</style></defs><polygon class="cls-1" points="352.84 114.49 294.8 114.49 294.8 83.6 346.92 83.6 346.92 58.02 294.8 58.02 294.8 28.72 351.85 28.72 351.85 2.76 267.66 2.76 267.66 140.44 352.84 140.44 352.84 114.49"/><polygon class="cls-1" points="510.58 140.45 510.58 2.76 482.54 2.76 443.26 67.77 403.77 2.76 375.85 2.76 375.85 140.45 402.98 140.45 402.98 51.49 441.64 115.13 444.81 115.03 483.64 51.14 483.64 140.45 510.58 140.45"/><polygon class="cls-1" points="625.26 114.49 567.22 114.49 567.22 83.6 619.35 83.6 619.35 58.02 567.22 58.02 567.22 28.72 624.27 28.72 624.27 2.76 540.08 2.76 540.08 140.44 625.26 140.44 625.26 114.49"/><path class="cls-1" d="M722.63,88.51A45.45,45.45,0,0,0,741.9,72.09a42,42,0,0,0,7.27-23.7A45.68,45.68,0,0,0,703.39,2.81H648.27V140.45h27.14V92.64H696l27.84,47.81h29.31Zm-6.11-25.7a17.29,17.29,0,0,1-13.17,6H675.41V28.13h27.94A17.48,17.48,0,0,1,716.52,34,20.27,20.27,0,0,1,722,48.39,20.56,20.56,0,0,1,716.52,62.81Z" transform="translate(0 0)"/><path class="cls-1" d="M906.54,66.49h-69v24h41.7a34.76,34.76,0,0,1-14.06,19.17q-10.33,7-26.07,7-21.24,0-34.12-12.68T792.06,71.81q0-19.66,12.7-32.55t32.35-12.89a46.33,46.33,0,0,1,22.13,5.3,36.67,36.67,0,0,1,14.85,13.79L897.3,32.07A64.9,64.9,0,0,0,872.51,8.75,72,72,0,0,0,837.3,0q-30.69,0-51.44,20.86t-20.75,51q0,29.91,21,50.64t52.81,20.77q29.88,0,48.78-18.31t18.88-47.79Z" transform="translate(0 0)"/><polygon class="cls-1" points="956.89 83.6 1009.01 83.6 1009.01 58.02 956.89 58.02 956.89 28.72 1013.92 28.72 1013.92 2.76 929.75 2.76 929.75 140.44 1014.91 140.44 1014.91 114.49 956.89 114.49 956.89 83.6"/><polygon class="cls-1" points="1117.6 86.64 1058.57 2.76 1037.94 2.76 1037.94 140.45 1065.08 140.45 1065.08 56.25 1124.09 140.45 1144.74 140.45 1144.74 2.76 1117.6 2.76 1117.6 86.64"/><path class="cls-1" d="M1239.55,26.36a43.25,43.25,0,0,1,21.24,5.21A36.5,36.5,0,0,1,1275.35,46l23.41-13.57a64,64,0,0,0-24.69-23.65A70.24,70.24,0,0,0,1239.55.05q-31.1,0-51.34,20.55T1168,71.6q0,30.29,20.26,50.94t51.34,20.66a70.07,70.07,0,0,0,34.62-8.75,64.16,64.16,0,0,0,24.59-23.71L1275.4,97.17a35.16,35.16,0,0,1-14.46,14.26,43.74,43.74,0,0,1-21.34,5.21q-20.07,0-32.37-12.58T1194.94,71.6q0-20,12.29-32.65T1239.55,26.36Z" transform="translate(0 0)"/><polygon class="cls-1" points="1351.28 140.45 1378.23 140.45 1378.23 86.75 1425.43 2.76 1394.74 2.76 1364.78 60.08 1334.96 2.76 1304.26 2.76 1351.28 86.76 1351.28 140.45"/><path class="cls-1" d="M361.74,247.71A42,42,0,0,0,369,224a45.68,45.68,0,0,0-45.73-45.63H268.11V316.07h27.14V268.26H315.8l27.84,47.81H373l-30.49-51.93A45.57,45.57,0,0,0,361.74,247.71Zm-25.38-9.24a17.24,17.24,0,0,1-13.18,6H295.25V203.75h27.93a17.44,17.44,0,0,1,13.18,5.9A20.3,20.3,0,0,1,341.87,224,20.6,20.6,0,0,1,336.36,238.47Z" transform="translate(0 0)"/><polygon class="cls-1" points="419.95 259.22 472.08 259.22 472.08 233.65 419.95 233.65 419.95 204.34 477 204.34 477 178.38 392.82 178.38 392.82 316.07 477.99 316.07 477.99 290.11 419.95 290.11 419.95 259.22"/><path class="cls-1" d="M593,257.81a27.28,27.28,0,0,0-6-6.89,65.71,65.71,0,0,0-7-5.31,53.12,53.12,0,0,0-8.63-4.24c-3.76-1.49-6.7-2.62-8.86-3.33s-5.35-1.74-9.55-3q-15.33-4.72-20.74-8.75a12.53,12.53,0,0,1-5.45-10.48,12.12,12.12,0,0,1,4.82-9.93q4.81-3.85,13.28-3.85,18.09,0,26.35,17.7L594,206.51a54.87,54.87,0,0,0-19.72-22.7q-12.71-8.15-29.41-8.17-18.71,0-32,11.11t-13.28,29.81a38.14,38.14,0,0,0,3.41,16.5,29.83,29.83,0,0,0,9.74,11.7,66.26,66.26,0,0,0,12.77,7.38,146.47,146.47,0,0,0,15.64,5.51q16.73,4.73,23.22,8.75a13,13,0,0,1,1.18,21.74c-3.54,2.75-9.13,4.12-16.72,4.12q-23.62,0-31.68-21l-23.24,13.55a49,49,0,0,0,19.67,24.88q14,9.12,34.42,9.12,22.23,0,36.1-11.22T598,277.32a39.76,39.76,0,0,0-5-19.51Z" transform="translate(0 0)"/><path class="cls-1" d="M670,178.38H618.63V316.07h27.14V270.81H670q19.88,0,33.44-13.37T717,224.61q0-19.47-13.57-32.85T670,178.38Zm14.36,61.07a19,19,0,0,1-14.36,6H645.8v-41.7H670a19.21,19.21,0,0,1,14.36,5.9,22.32,22.32,0,0,1,0,29.8Z" transform="translate(0 0)"/><path class="cls-1" d="M802.73,175.63q-29.9,0-50.63,20.75t-20.77,50.84q0,30.11,20.77,50.85t50.63,20.74q29.91,0,50.76-20.75t20.86-50.85q0-30.09-20.86-50.84T802.73,175.63Zm31.67,104q-12.76,12.67-31.67,12.67t-31.66-12.67q-12.78-12.7-12.79-32.37t12.79-32.45Q783.85,202,802.73,202t31.67,12.79q12.81,12.78,12.79,32.45T834.4,279.59Z" transform="translate(0 0)"/><polygon class="cls-1" points="977.02 262.26 917.99 178.38 897.35 178.38 897.35 316.07 924.5 316.07 924.5 231.88 983.51 316.07 1004.17 316.07 1004.17 178.38 977.02 178.38 977.02 262.26"/><path class="cls-1" d="M1123.46,257.81a27.28,27.28,0,0,0-6-6.89,68.14,68.14,0,0,0-7-5.31,53.42,53.42,0,0,0-8.66-4.24c-3.73-1.49-6.68-2.62-8.85-3.33s-5.34-1.74-9.53-3q-15.36-4.72-20.77-8.75a12.56,12.56,0,0,1-5.4-10.52,12.15,12.15,0,0,1,4.81-9.93q4.83-3.85,13.29-3.85,18.09,0,26.35,17.7l22.82-13.17a54.7,54.7,0,0,0-19.75-22.71q-12.69-8.15-29.4-8.17-18.69,0-32,11.11t-13.27,29.81a38.19,38.19,0,0,0,3.34,16.52,29.94,29.94,0,0,0,9.73,11.7,66.5,66.5,0,0,0,12.8,7.38,141.47,141.47,0,0,0,15.64,5.51q16.7,4.72,23.2,8.75t6.49,11.31a12.72,12.72,0,0,1-5.31,10.43q-5.31,4.13-16.72,4.12-23.6,0-31.66-21l-23.19,13.53a48.87,48.87,0,0,0,19.68,24.88q14,9.13,34.41,9.15,22.23,0,36.1-11.22t13.87-30.29a39.49,39.49,0,0,0-5-19.47Z" transform="translate(0 0)"/><polygon class="cls-1" points="1176.27 259.22 1228.39 259.22 1228.39 233.65 1176.27 233.65 1176.27 204.34 1233.32 204.34 1233.32 178.38 1149.13 178.38 1149.13 316.07 1234.31 316.07 1234.31 290.11 1176.27 290.11 1176.27 259.22"/><polygon class="cls-1" points="1300.19 204.34 1337.17 204.34 1337.17 316.07 1364.32 316.07 1364.32 204.34 1401.49 204.34 1401.49 178.38 1300.19 178.38 1300.19 204.34"/><polygon class="cls-1" points="1447.72 259.22 1499.84 259.22 1499.84 233.65 1447.72 233.65 1447.72 204.34 1504.77 204.34 1504.77 178.38 1420.58 178.38 1420.58 316.07 1505.76 316.07 1505.76 290.11 1447.72 290.11 1447.72 259.22"/><path class="cls-1" d="M1566.74,178.38l-48.19,137.69h29.31l8.25-24.78h56.56l8.75,24.78H1649l-48.59-137.69ZM1565,265.91l18.88-56.26,19.88,56.26Z" transform="translate(0 0)"/><polygon class="cls-1" points="1772.95 178.38 1733.67 243.39 1694.18 178.38 1666.26 178.38 1666.26 316.07 1693.41 316.07 1693.41 227.1 1732.05 290.75 1735.23 290.64 1774.05 226.76 1774.05 316.07 1801 316.07 1801 178.38 1772.95 178.38"/><polygon class="cls-1" points="64.34 155.21 0 320.77 41.39 320.77 88.47 198.96 135.54 320.77 176.92 320.77 112.58 155.21 64.34 155.21"/><polygon class="cls-1" points="64.34 9.68 0 175.24 41.39 175.24 88.47 53.43 135.54 175.24 176.92 175.24 112.58 9.68 64.34 9.68"/></svg>