<svg id="Laag_1" data-name="Laag 1" xmlns="http://www.w3.org/2000/svg" viewBox="0 0 1801 320.77"><defs><style>.cls-1{fill:#be0000;}</style></defs><polygon class="cls-1" points="352.84 114.49 294.8 114.49 294.8 83.6 346.92 83.6 346.92 58.02 294.8 58.02 294.8 28.72 351.85 28.72 351.85 2.76 267.66 2.76 267.66 140.44 352.84 140.44 352.84 114.49"/><polygon class="cls-1" points="510.58 140.45 510.58 2.76 482.54 2.76 443.26 67.77 403.77 2.76 375.85 2.76 375.85 140.45 402.98 140.45 402.98 51.49 441.64 115.13 444.81 115.03 483.64 51.14 483.64 140.45 510.58 140.45"/><polygon class="cls-1" points="625.26 114.49 567.22 114.49 567.22 83.6 619.35 83.6 619.35 58.02 567.22 58.02 567.22 28.72 624.27 28.72 624.27 2.76 540.08 2.76 540.08 140.44 625.26 140.44 625.26 114.49"/><path class="cls-1" d="M786.63,151.7a45.43,45.43,0,0,0,19.27-16.42,42,42,0,0,0,7.27-23.7A45.68,45.68,0,0,0,767.35,66H712.27V203.64h27.14V155.83H760l27.84,47.81h29.31ZM780.52,126a17.28,17.28,0,0,1-13.17,6H739.41V91.32h27.94a17.46,17.46,0,0,1,13.17,5.9A20.25,20.25,0,0,1,786,111.58,20.58,20.58,0,0,1,780.52,126Z" transform="translate(-64 -63.19)"/><path class="cls-1" d="M970.54,129.68h-69v24h41.7a34.74,34.74,0,0,1-14.06,19.17q-10.33,7-26.07,7-21.24,0-34.12-12.68T856.06,135q0-19.67,12.7-32.55t32.35-12.89a46.33,46.33,0,0,1,22.13,5.3,36.64,36.64,0,0,1,14.85,13.79L961.3,95.26a64.91,64.91,0,0,0-24.79-23.32,72,72,0,0,0-35.21-8.75q-30.69,0-51.44,20.86T829.11,135q0,29.91,21,50.64t52.81,20.77q29.88,0,48.78-18.31t18.88-47.79Z" transform="translate(-64 -63.19)"/><polygon class="cls-1" points="956.89 83.6 1009.01 83.6 1009.01 58.02 956.89 58.02 956.89 28.72 1013.92 28.72 1013.92 2.76 929.75 2.76 929.75 140.44 1014.91 140.44 1014.91 114.49 956.89 114.49 956.89 83.6"/><polygon class="cls-1" points="1117.6 86.64 1058.57 2.76 1037.94 2.76 1037.94 140.45 1065.08 140.45 1065.08 56.25 1124.09 140.45 1144.74 140.45 1144.74 2.76 1117.6 2.76 1117.6 86.64"/><path class="cls-1" d="M1303.55,89.55a43.29,43.29,0,0,1,21.24,5.21,36.51,36.51,0,0,1,14.56,14.46l23.41-13.57A64,64,0,0,0,1338.07,72a70.25,70.25,0,0,0-34.52-8.76q-31.1,0-51.34,20.55T1232,134.79q0,30.28,20.26,50.94t51.34,20.66a70.1,70.1,0,0,0,34.62-8.75,64.16,64.16,0,0,0,24.59-23.71l-23.41-13.57a35.12,35.12,0,0,1-14.46,14.26,43.76,43.76,0,0,1-21.34,5.21q-20.07,0-32.37-12.58t-12.29-32.46q0-20,12.29-32.65T1303.55,89.55Z" transform="translate(-64 -63.19)"/><polygon class="cls-1" points="1351.28 140.45 1378.23 140.45 1378.23 86.75 1425.43 2.76 1394.74 2.76 1364.78 60.08 1334.96 2.76 1304.26 2.76 1351.28 86.76 1351.28 140.45"/><path class="cls-1" d="M425.74,310.9A41.93,41.93,0,0,0,433,287.2a45.68,45.68,0,0,0-45.83-45.63H332.11V379.26h27.14V331.45H379.8l27.84,47.81H437l-30.49-51.93A45.53,45.53,0,0,0,425.74,310.9Zm-25.38-9.24a17.25,17.25,0,0,1-13.18,6H359.25V266.94h27.93a17.46,17.46,0,0,1,13.18,5.9,20.31,20.31,0,0,1,5.51,14.36A20.6,20.6,0,0,1,400.36,301.66Z" transform="translate(-64 -63.19)"/><polygon class="cls-1" points="419.95 259.22 472.08 259.22 472.08 233.65 419.95 233.65 419.95 204.34 477 204.34 477 178.38 392.82 178.38 392.82 316.07 477.99 316.07 477.99 290.11 419.95 290.11 419.95 259.22"/><path class="cls-1" d="M657,321a27.42,27.42,0,0,0-6-6.89,65.82,65.82,0,0,0-7-5.31,53.73,53.73,0,0,0-8.63-4.24c-3.76-1.49-6.7-2.62-8.86-3.33s-5.35-1.74-9.55-3q-15.33-4.73-20.74-8.75A12.53,12.53,0,0,1,590.77,279a12.1,12.1,0,0,1,4.82-9.93q4.81-3.86,13.28-3.85,18.09,0,26.35,17.7L658,269.7A54.91,54.91,0,0,0,638.28,247q-12.71-8.14-29.41-8.17-18.71,0-32,11.11t-13.28,29.81A38.13,38.13,0,0,0,567,296.25a29.85,29.85,0,0,0,9.74,11.7,66.61,66.61,0,0,0,12.77,7.38,144.34,144.34,0,0,0,15.64,5.51q16.73,4.73,23.22,8.75t6.49,11.31a12.7,12.7,0,0,1-5.31,10.43c-3.54,2.75-9.13,4.12-16.72,4.12q-23.62,0-31.68-21L557.91,348a49,49,0,0,0,19.67,24.88Q591.57,382,612,382q22.23,0,36.1-11.22T662,340.51a39.07,39.07,0,0,0-1.47-10.92A39.52,39.52,0,0,0,657,321Z" transform="translate(-64 -63.19)"/><path class="cls-1" d="M734,241.57H682.63V379.26h27.14V334H734q19.88,0,33.44-13.37T781,287.8q0-19.47-13.57-32.85T734,241.57Zm14.36,61.07a19,19,0,0,1-14.36,6h-24.2v-41.7H734a19.2,19.2,0,0,1,14.36,5.9,22.32,22.32,0,0,1,0,29.8Z" transform="translate(-64 -63.19)"/><path class="cls-1" d="M866.73,238.82q-29.9,0-50.63,20.75t-20.77,50.84q0,30.1,20.77,50.85T866.73,382q29.91,0,50.76-20.75t20.86-50.85q0-30.09-20.86-50.84T866.73,238.82Zm31.67,104q-12.76,12.68-31.67,12.67t-31.66-12.67q-12.78-12.7-12.79-32.37T835.07,278q12.78-12.78,31.66-12.79T898.4,278q12.81,12.78,12.79,32.45T898.4,342.78Z" transform="translate(-64 -63.19)"/><polygon class="cls-1" points="977.02 262.26 917.99 178.38 897.35 178.38 897.35 316.07 924.5 316.07 924.5 231.88 983.51 316.07 1004.17 316.07 1004.17 178.38 977.02 178.38 977.02 262.26"/><path class="cls-1" d="M1187.46,321a27.16,27.16,0,0,0-6-6.89,67.92,67.92,0,0,0-7-5.31,53,53,0,0,0-8.66-4.24c-3.73-1.49-6.68-2.62-8.85-3.33s-5.34-1.74-9.53-3q-15.36-4.73-20.77-8.75a12.55,12.55,0,0,1-5.4-10.52,12.12,12.12,0,0,1,4.81-9.93q4.83-3.86,13.29-3.85,18.09,0,26.35,17.7l22.82-13.17A54.72,54.72,0,0,0,1168.77,247q-12.69-8.14-29.4-8.17-18.69,0-32,11.11t-13.27,29.81a38.27,38.27,0,0,0,3.34,16.52,30,30,0,0,0,9.73,11.7,66.8,66.8,0,0,0,12.8,7.38,141.33,141.33,0,0,0,15.64,5.51q16.69,4.73,23.2,8.75t6.49,11.31a12.7,12.7,0,0,1-5.31,10.43q-5.31,4.13-16.72,4.12-23.6,0-31.66-21L1088.42,348a48.88,48.88,0,0,0,19.68,24.88q14,9.13,34.41,9.15,22.23,0,36.1-11.22t13.87-30.29a39.43,39.43,0,0,0-5-19.47Z" transform="translate(-64 -63.19)"/><polygon class="cls-1" points="1176.27 259.22 1228.39 259.22 1228.39 233.65 1176.27 233.65 1176.27 204.34 1233.32 204.34 1233.32 178.38 1149.13 178.38 1149.13 316.07 1234.31 316.07 1234.31 290.11 1176.27 290.11 1176.27 259.22"/><polygon class="cls-1" points="1300.19 204.34 1337.17 204.34 1337.17 316.07 1364.32 316.07 1364.32 204.34 1401.49 204.34 1401.49 178.38 1300.19 178.38 1300.19 204.34"/><polygon class="cls-1" points="1447.72 259.22 1499.84 259.22 1499.84 233.65 1447.72 233.65 1447.72 204.34 1504.77 204.34 1504.77 178.38 1420.58 178.38 1420.58 316.07 1505.76 316.07 1505.76 290.11 1447.72 290.11 1447.72 259.22"/><path class="cls-1" d="M1630.74,241.57l-48.19,137.69h29.31l8.25-24.78h56.56l8.75,24.78H1713l-48.59-137.69ZM1629,329.1l18.88-56.26,19.88,56.26Z" transform="translate(-64 -63.19)"/><polygon class="cls-1" points="1772.95 178.38 1733.67 243.39 1694.18 178.38 1666.26 178.38 1666.26 316.07 1693.41 316.07 1693.41 227.1 1732.05 290.75 1735.23 290.64 1774.05 226.76 1774.05 316.07 1801 316.07 1801 178.38 1772.95 178.38"/><polygon class="cls-1" points="64.34 155.21 0 320.77 41.39 320.77 88.47 198.96 135.54 320.77 176.92 320.77 112.58 155.21 64.34 155.21"/><polygon class="cls-1" points="64.34 9.68 0 175.24 41.39 175.24 88.47 53.43 135.54 175.24 176.92 175.24 112.58 9.68 64.34 9.68"/></svg>