
<svg fill="yellow" version="1.1" id="Laag_1" xmlns="http://www.w3.org/2000/svg" xmlns:xlink="http://www.w3.org/1999/xlink" x="0px" y="0px"
	 viewBox="0 0 800 65" style="enable-background:new 0 0 800 65;" xml:space="preserve">
<style type="text/css">
	.st0{fill:purple;}
</style>
<g>
	<polygon class="st0" points="452.2,0 451.9,0 484.6,32.8 453.7,63.9 453.9,63.9 484.9,32.8 	"/>
</g>
<g>
	<polygon class="st0" points="135.9,0 135.5,0 168.2,32.8 137.2,63.9 137.6,63.9 168.6,32.8 	"/>
</g>
<g>
	<polygon class="st0" points="295.3,1.1 294.3,1.1 327,33.9 296,65 297,65 328,33.9 	"/>
</g>
<g>
	<polygon class="st0" points="613,1.1 612.6,1.1 645.3,33.9 614.3,65 614.8,65 645.7,33.9 	"/>
</g>
<g>
	<polygon class="st0" points="294.3,0 139.3,0 172,32.8 141.1,63.9 296,63.9 327,32.8 	"/>
</g>
<g>
	<polygon class="st0" points="451.9,0 297.8,0 330.5,32.8 299.5,63.9 453.7,63.9 484.6,32.8 	"/>
</g>
<g>
	<polygon class="st0" points="168.2,32.8 135.5,0 0,0 0,63.9 137.2,63.9 	"/>
</g>
<g>
	<path class="st0" d="M646.7,32.8l-31,31.1h153.7l29.5-29.6c1.5-1.5,1.5-1.5,0.1-2.9L767.7,0H614L646.7,32.8z"/>
</g>
<g>
	<polygon class="st0" points="610.2,0 455.5,0 488.2,32.8 457.2,63.9 611.9,63.9 642.9,32.8 	"/>
</g>
</svg>
