<svg id="Laag_1" data-name="Laag 1" xmlns="http://www.w3.org/2000/svg" viewBox="0 0 1745.63 325.42"><defs><style>.cls-1{fill:#0070bd;}</style></defs><polygon class="cls-1" points="64.61 156.65 0 322.92 41.56 322.92 88.83 200.59 136.1 322.92 177.67 322.92 113.07 156.65 64.61 156.65"/><polygon class="cls-1" points="64.61 10.51 0 176.77 41.56 176.77 88.83 54.44 136.1 176.77 177.67 176.77 113.07 10.51 64.61 10.51"/><path class="cls-1" d="M385.7,183.73h58.68l9.08,25.71H482L431.61,66.6H396.72l-50,142.84h30.41ZM414.46,99l20.61,58.37h-40.2Z" transform="translate(-70.57 -63.74)"/><polygon class="cls-1" points="513.67 118.77 453.47 118.77 453.47 86.73 507.55 86.73 507.55 60.2 453.47 60.2 453.47 29.79 512.65 29.79 512.65 2.85 425.31 2.85 425.31 145.71 513.67 145.71 513.67 118.77"/><path class="cls-1" d="M632.2,159.85h21.33l28.87,49.59h30.41l-31.63-53.88a47.14,47.14,0,0,0,20-17,43.43,43.43,0,0,0,7.56-24.6A47.37,47.37,0,0,0,661.18,66.6H604V209.44H632.2Zm0-66.93h29A18.07,18.07,0,0,1,674.85,99a21,21,0,0,1,5.72,14.89,21.37,21.37,0,0,1-5.72,15,17.9,17.9,0,0,1-13.67,6.23h-29Z" transform="translate(-70.57 -63.74)"/><rect class="cls-1" x="658.77" y="2.86" width="28.16" height="142.85"/><path class="cls-1" d="M821.18,66.6l-50,142.84h30.41l8.57-25.71h58.68l9.08,25.71h28.55L856.07,66.6Zm-1.85,90.81L838.92,99l20.61,58.37Z" transform="translate(-70.57 -63.74)"/><polygon class="cls-1" points="932.42 118.77 877.93 118.77 877.93 2.85 849.78 2.85 849.78 145.71 932.42 145.71 932.42 118.77"/><path class="cls-1" d="M1163.82,209.44h28.55L1142,66.6h-34.9l-50,142.84h30.4l8.57-25.71h58.68Zm-58.59-52L1124.82,99l20.61,58.37Z" transform="translate(-70.57 -63.74)"/><path class="cls-1" d="M1268.89,91.08a45,45,0,0,1,22,5.41,37.82,37.82,0,0,1,15.1,15l24.28-14.08a66.56,66.56,0,0,0-25.61-24.58,72.85,72.85,0,0,0-35.82-9.08q-32.25,0-53.26,21.33t-21,52.94q0,31.44,21,52.86t53.26,21.43a72.69,72.69,0,0,0,35.92-9.08,66.73,66.73,0,0,0,25.51-24.59L1306,164.54a36.57,36.57,0,0,1-15,14.8,45.4,45.4,0,0,1-22.15,5.41q-20.81,0-33.57-13.06T1222.57,138q0-20.8,12.75-33.87T1268.89,91.08Z" transform="translate(-70.57 -63.74)"/><path class="cls-1" d="M1414,91.08a44.9,44.9,0,0,1,22,5.41,37.82,37.82,0,0,1,15.1,15l24.28-14.08a66.5,66.5,0,0,0-25.61-24.58A72.84,72.84,0,0,0,1414,63.74q-32.25,0-53.27,21.33t-21,52.94q0,31.44,21,52.86T1414,212.3a72.71,72.71,0,0,0,35.92-9.08,66.63,66.63,0,0,0,25.5-24.59l-24.28-14.09a36.57,36.57,0,0,1-15,14.8,45.37,45.37,0,0,1-22.14,5.41q-20.82,0-33.58-13.06T1367.66,138q0-20.8,12.75-33.87T1414,91.08Z" transform="translate(-70.57 -63.74)"/><polygon class="cls-1" points="1450.35 86.73 1504.42 86.73 1504.42 60.2 1450.35 60.2 1450.35 29.79 1509.53 29.79 1509.53 2.85 1422.19 2.85 1422.19 145.71 1510.55 145.71 1510.55 118.77 1450.35 118.77 1450.35 86.73"/><path class="cls-1" d="M1696.31,149a28,28,0,0,0-6.22-7.15,72.4,72.4,0,0,0-7.24-5.51,57.08,57.08,0,0,0-9-4.39c-3.88-1.56-6.93-2.72-9.18-3.47s-5.55-1.79-9.9-3.15q-15.91-4.91-21.53-9.08a13,13,0,0,1-5.61-10.92,12.55,12.55,0,0,1,5-10.31q5-4,13.77-4,18.78,0,27.35,18.37l23.67-13.67a56.77,56.77,0,0,0-20.51-23.57q-13.15-8.47-30.51-8.47-19.38,0-33.16,11.53t-13.78,30.91a39.84,39.84,0,0,0,3.47,17.15,31.16,31.16,0,0,0,10.1,12.13,69.35,69.35,0,0,0,13.27,7.65,148.94,148.94,0,0,0,16.23,5.73q17.34,4.89,24.07,9.07t6.74,11.73a13.13,13.13,0,0,1-5.51,10.82q-5.52,4.29-17.35,4.29-24.48,0-32.85-21.84L1593.57,177a50.77,50.77,0,0,0,20.4,25.82q14.49,9.48,35.72,9.49,23.05,0,37.44-11.63t14.39-31.43a40.1,40.1,0,0,0-1.53-11.33A39.67,39.67,0,0,0,1696.31,149Z" transform="translate(-70.57 -63.74)"/><path class="cls-1" d="M1814.68,157.91A40.63,40.63,0,0,0,1811,149a27.87,27.87,0,0,0-6.23-7.15,73.58,73.58,0,0,0-7.23-5.51,57.08,57.08,0,0,0-9-4.39q-5.82-2.34-9.19-3.47t-9.89-3.15q-15.93-4.91-21.53-9.08a13,13,0,0,1-5.61-10.92,12.57,12.57,0,0,1,5-10.31q5-4,13.78-4,18.77,0,27.34,18.37l23.68-13.67a56.91,56.91,0,0,0-20.51-23.57q-13.17-8.47-30.51-8.47-19.38,0-33.16,11.53t-13.78,30.91a39.84,39.84,0,0,0,3.47,17.15,31.16,31.16,0,0,0,10.1,12.13,69.05,69.05,0,0,0,13.27,7.65,148.7,148.7,0,0,0,16.22,5.73q17.36,4.89,24.08,9.07t6.73,11.73a13.15,13.15,0,0,1-5.5,10.82q-5.52,4.29-17.35,4.29-24.48,0-32.86-21.84L1708.25,177a50.78,50.78,0,0,0,20.41,25.82q14.49,9.48,35.71,9.49,23.07,0,37.45-11.63t14.38-31.43A40.11,40.11,0,0,0,1814.68,157.91Z" transform="translate(-70.57 -63.74)"/><polygon class="cls-1" points="278.38 206.65 316.74 206.65 316.74 322.57 344.91 322.57 344.91 206.65 383.48 206.65 383.48 179.72 278.38 179.72 278.38 206.65"/><path class="cls-1" d="M566.9,315.39a43.48,43.48,0,0,0,7.55-24.6,47.37,47.37,0,0,0-47.54-47.33H469.76V386.3h28.16V336.72h21.33l28.87,49.58h30.41L546.9,332.43A47.26,47.26,0,0,0,566.9,315.39Zm-26.32-9.6A17.9,17.9,0,0,1,526.91,312h-29V269.78h29a18.07,18.07,0,0,1,13.67,6.12,21.07,21.07,0,0,1,5.71,14.89A21.4,21.4,0,0,1,540.58,305.79Z" transform="translate(-70.57 -63.74)"/><path class="cls-1" d="M632.21,243.45l-50,142.86h30.4l8.57-25.71h58.68L689,386.31H717.5L667.1,243.45Zm-1.85,90.82L650,275.9l20.6,58.37Z" transform="translate(-70.57 -63.74)"/><rect class="cls-1" x="660.81" y="179.71" width="28.16" height="142.86"/><polygon class="cls-1" points="798.14 266.74 736.89 179.72 715.5 179.72 715.5 322.57 743.66 322.57 743.66 235.23 804.87 322.57 826.3 322.57 826.3 179.72 798.14 179.72 798.14 266.74"/><rect class="cls-1" x="852.83" y="179.71" width="28.16" height="142.86"/><polygon class="cls-1" points="990.16 266.74 928.93 179.72 907.52 179.72 907.52 322.57 935.68 322.57 935.68 235.23 996.9 322.57 1018.33 322.57 1018.33 179.72 990.16 179.72 990.16 266.74"/><path class="cls-1" d="M1184,334.47h43.27a36.06,36.06,0,0,1-14.59,19.9q-10.71,7.25-27,7.24-22,0-35.41-13.16t-13.37-33.37q0-20.4,13.17-33.78t33.56-13.36a47.88,47.88,0,0,1,23,5.52q10.29,5.51,15.41,14.27L1246,273.86a67.3,67.3,0,0,0-25.71-24.18,74.64,74.64,0,0,0-36.53-9.09q-31.83,0-53.36,21.64t-21.53,52.85q0,31,21.74,52.55t54.79,21.53q31,0,50.61-19t19.59-49.59v-11H1184Z" transform="translate(-70.57 -63.74)"/></svg>