<svg id="Laag_1" data-name="Laag 1" xmlns="http://www.w3.org/2000/svg" viewBox="0 0 1570.8 317.73"><defs><style>.cls-1{fill:#73a400;}</style></defs><path class="cls-1" d="M431.86,145.8a41.92,41.92,0,0,0,7.27-23.69,45.65,45.65,0,0,0-45.82-45.64H338.23V214.16h27.14v-47.8h20.57l27.82,47.8h29.31l-30.48-51.93A45.39,45.39,0,0,0,431.86,145.8Zm-25.37-9.24a17.27,17.27,0,0,1-13.18,6H365.37V101.84h27.94a17.48,17.48,0,0,1,13.18,5.9,20.31,20.31,0,0,1,5.5,14.37A20.61,20.61,0,0,1,406.49,136.56Z" transform="translate(-70.57 -73.71)"/><path class="cls-1" d="M526.48,216.92q29.88,0,50.74-20.76t20.86-50.85q0-30.09-20.86-50.83T526.48,73.71q-29.91,0-50.66,20.77t-20.74,50.83q0,30.1,20.74,50.85T526.48,216.92ZM494.82,112.86q12.76-12.78,31.66-12.79t31.67,12.79q12.78,12.78,12.78,32.45t-12.78,32.37q-12.79,12.67-31.67,12.67t-31.66-12.67Q482,165,482,145.31T494.82,112.86Z" transform="translate(-70.57 -73.71)"/><path class="cls-1" d="M672.43,76.47H621.1V214.16h27.13V168.92h24.2q19.88,0,33.43-13.38t13.59-32.84q0-19.49-13.59-32.85T672.43,76.47Zm14.37,61.07a19,19,0,0,1-14.37,6h-24.2v-41.7h24.2a19.22,19.22,0,0,1,14.37,5.9,20.71,20.71,0,0,1,5.7,15A20.75,20.75,0,0,1,686.8,137.54Z" transform="translate(-70.57 -73.71)"/><polygon class="cls-1" points="697.64 83.6 749.76 83.6 749.76 58.03 697.64 58.03 697.64 28.72 754.69 28.72 754.69 2.76 670.5 2.76 670.5 140.45 755.68 140.45 755.68 114.49 697.64 114.49 697.64 83.6"/><path class="cls-1" d="M927.55,189.38h56.57l8.74,24.78h27.53L971.81,76.47H938.17L890,214.16h29.31Zm27.73-81.64L975.15,164H936.4Z" transform="translate(-70.57 -73.71)"/><path class="cls-1" d="M1098.08,216.92a70.12,70.12,0,0,0,34.62-8.75,64.11,64.11,0,0,0,24.59-23.72l-23.41-13.56a35.31,35.31,0,0,1-14.44,14.26,43.89,43.89,0,0,1-21.36,5.21q-20.07,0-32.35-12.58t-12.3-32.47q0-20,12.3-32.64t32.35-12.6a43.24,43.24,0,0,1,21.25,5.21,36.38,36.38,0,0,1,14.55,14.47l23.41-13.57a63.94,63.94,0,0,0-24.69-23.71,70.19,70.19,0,0,0-34.52-8.76q-31.08,0-51.34,20.56t-20.25,51q0,30.3,20.25,50.95T1098.08,216.92Z" transform="translate(-70.57 -73.71)"/><path class="cls-1" d="M1241.88,100.07a43.29,43.29,0,0,1,21.24,5.21,36.53,36.53,0,0,1,14.56,14.47l23.4-13.57a64,64,0,0,0-24.68-23.71,70.27,70.27,0,0,0-34.52-8.76q-31.1,0-51.35,20.56t-20.26,51q0,30.3,20.26,50.95t51.35,20.66a70.16,70.16,0,0,0,34.61-8.75,64.18,64.18,0,0,0,24.59-23.72l-23.4-13.56a35.32,35.32,0,0,1-14.47,14.26,43.83,43.83,0,0,1-21.33,5.21q-20.07,0-32.37-12.58t-12.29-32.47q0-20,12.29-32.64T1241.88,100.07Z" transform="translate(-70.57 -73.71)"/><polygon class="cls-1" points="1278.31 83.6 1330.43 83.6 1330.43 58.03 1278.31 58.03 1278.31 28.72 1335.35 28.72 1335.35 2.76 1251.17 2.76 1251.17 140.45 1336.34 140.45 1336.34 114.49 1278.31 114.49 1278.31 83.6"/><path class="cls-1" d="M1521.88,156a27,27,0,0,0-6-6.89,66.76,66.76,0,0,0-7-5.32,52.26,52.26,0,0,0-8.66-4.23q-5.6-2.25-8.85-3.34t-9.53-3q-15.37-4.74-20.77-8.76a12.53,12.53,0,0,1-5.41-10.52,12.14,12.14,0,0,1,4.82-9.93c3.22-2.57,7.64-3.85,13.29-3.85q18.09,0,26.35,17.71L1523,104.6a54.85,54.85,0,0,0-19.77-22.72q-12.68-8.16-29.4-8.17-18.69,0-32,11.12t-13.27,29.8a38.42,38.42,0,0,0,3.33,16.52,30.21,30.21,0,0,0,9.74,11.71,67.2,67.2,0,0,0,12.79,7.37,142.82,142.82,0,0,0,15.64,5.51q16.71,4.74,23.21,8.75c4.33,2.69,6.49,6.47,6.49,11.31a12.71,12.71,0,0,1-5.32,10.43q-5.29,4.13-16.71,4.13-23.6,0-31.66-21.05l-23.22,13.58a48.92,48.92,0,0,0,19.68,24.88q13.95,9.14,34.41,9.15,22.23,0,36.09-11.21t13.88-30.29a38.77,38.77,0,0,0-1.48-10.93A38.05,38.05,0,0,0,1521.88,156Z" transform="translate(-70.57 -73.71)"/><path class="cls-1" d="M1639.9,164.49a38.52,38.52,0,0,0-3.54-8.54,26.88,26.88,0,0,0-6-6.89,65.73,65.73,0,0,0-7-5.32,53.16,53.16,0,0,0-8.64-4.23q-5.62-2.25-8.85-3.34t-9.55-3q-15.35-4.74-20.75-8.76a12.53,12.53,0,0,1-5.41-10.52,12.11,12.11,0,0,1,4.82-9.93c3.21-2.57,7.63-3.85,13.29-3.85q18.08,0,26.35,17.71l22.82-13.18a55.07,55.07,0,0,0-19.77-22.72q-12.71-8.16-29.4-8.17-18.72,0-32,11.12T1543,114.63a38.13,38.13,0,0,0,3.35,16.52,30,30,0,0,0,9.74,11.71,67.07,67.07,0,0,0,12.77,7.37,146.69,146.69,0,0,0,15.64,5.51q16.73,4.74,23.22,8.75c4.32,2.69,6.49,6.47,6.49,11.31a12.7,12.7,0,0,1-5.31,10.43q-5.31,4.13-16.72,4.13-23.61,0-31.67-21.05l-23.22,13.58A49.08,49.08,0,0,0,1557,207.77q14,9.14,34.42,9.15,22.23,0,36.1-11.21t13.86-30.29A39.14,39.14,0,0,0,1639.9,164.49Z" transform="translate(-70.57 -73.71)"/><path class="cls-1" d="M390.34,251H339V388.68h27.14V343.44h24.2q19.88,0,33.44-13.37t13.57-32.85q0-19.47-13.57-32.85T390.34,251Zm14.36,61.08a19,19,0,0,1-14.36,6h-24.2v-41.7h24.2a19.2,19.2,0,0,1,14.36,5.9,22.34,22.34,0,0,1,0,29.81Z" transform="translate(-70.57 -73.71)"/><path class="cls-1" d="M552.62,320.32a41.93,41.93,0,0,0,7.27-23.7A45.65,45.65,0,0,0,514.06,251H459V388.68h27.14V340.87H506.7l27.82,47.81h29.31l-30.48-51.93A45.51,45.51,0,0,0,552.62,320.32Zm-25.37-9.24a17.31,17.31,0,0,1-13.19,6H486.13V276.36h27.93a17.48,17.48,0,0,1,13.19,5.9,20.35,20.35,0,0,1,5.5,14.36A20.66,20.66,0,0,1,527.25,311.08Z" transform="translate(-70.57 -73.71)"/><path class="cls-1" d="M647.24,248.24q-29.91,0-50.66,20.75t-20.74,50.84q0,30.1,20.74,50.85t50.66,20.75q29.88,0,50.74-20.75t20.86-50.85q0-30.09-20.86-50.84T647.24,248.24Zm31.67,104q-12.79,12.68-31.67,12.67T615.57,352.2q-12.8-12.7-12.79-32.37t12.79-32.45q12.78-12.78,31.67-12.79t31.67,12.79q12.78,12.78,12.78,32.45T678.91,352.2Z" transform="translate(-70.57 -73.71)"/><path class="cls-1" d="M790,345.81q0,8.83-5.31,14t-16.13,5.1q-15.54,0-22-13l-23.41,13.38q13,26.16,45.43,26.17,21.25,0,34.82-12T817,345.81V251H790Z" transform="translate(-70.57 -73.71)"/><polygon class="cls-1" points="801.88 258.12 854 258.12 854 232.54 801.88 232.54 801.88 203.24 858.93 203.24 858.93 177.28 774.74 177.28 774.74 314.96 859.92 314.96 859.92 289.01 801.88 289.01 801.88 258.12"/><path class="cls-1" d="M1017.81,274.59a43.2,43.2,0,0,1,21.24,5.21,36.44,36.44,0,0,1,14.56,14.46L1077,280.7A63.91,63.91,0,0,0,1052.33,257a70.22,70.22,0,0,0-34.52-8.76q-31.09,0-51.35,20.55t-20.25,51.05q0,30.29,20.25,50.94t51.35,20.67a70.11,70.11,0,0,0,34.61-8.75A64.11,64.11,0,0,0,1077,359l-23.4-13.57a35.27,35.27,0,0,1-14.45,14.26,43.74,43.74,0,0,1-21.35,5.21q-20.07,0-32.36-12.57t-12.29-32.47q0-20,12.29-32.64T1017.81,274.59Z" transform="translate(-70.57 -73.71)"/><polygon class="cls-1" points="1016.29 203.24 1053.27 203.24 1053.27 314.97 1080.42 314.97 1080.42 203.24 1117.59 203.24 1117.59 177.28 1016.29 177.28 1016.29 203.24"/><polygon class="cls-1" points="64.34 148.54 0 314.11 41.39 314.11 88.47 192.3 135.54 314.11 176.92 314.11 112.58 148.54 64.34 148.54"/><polygon class="cls-1" points="64.34 3.01 0 168.58 41.39 168.58 88.47 46.77 135.54 168.58 176.92 168.58 112.58 3.01 64.34 3.01"/></svg>