<svg width="325" height="69" viewBox="0 0 325 69" fill="none" xmlns="http://www.w3.org/2000/svg">
<path d="M38.08 67.56H29.17L19.04 41.34L8.90999 67.56H0L13.85 31.92H24.24L38.08 67.56Z" fill="white"/>
<path d="M38.08 36.23H29.17L19.04 10.01L8.90999 36.23H0L13.85 0.589966H24.24L38.08 36.23Z" fill="white"/>
<path d="M70.89 29.99L64.95 19.78H60.56V29.99H54.76V0.589966H66.52C69.23 0.589966 71.55 1.53997 73.45 3.44997C75.35 5.35997 76.31 7.64997 76.31 10.34C76.31 12.16 75.79 13.85 74.76 15.4C73.72 16.95 72.35 18.12 70.64 18.91L77.15 30H70.89V29.99ZM60.56 6.00996V14.7H66.52C67.61 14.7 68.55 14.27 69.33 13.42C70.11 12.57 70.51 11.54 70.51 10.33C70.51 9.12997 70.12 8.09996 69.33 7.25996C68.54 6.41996 67.61 5.99997 66.52 5.99997H60.56V6.00996Z" fill="white"/>
<path d="M104.95 26.15C101.98 29.1 98.37 30.58 94.11 30.58C89.85 30.58 86.25 29.1 83.3 26.15C80.34 23.2 78.87 19.58 78.87 15.29C78.87 11 80.35 7.38999 83.3 4.42999C86.25 1.47999 89.86 0 94.11 0C98.36 0 101.98 1.47999 104.95 4.42999C107.92 7.37999 109.4 11 109.4 15.29C109.4 19.58 107.92 23.2 104.95 26.15ZM87.36 22.2C89.18 24.01 91.43 24.91 94.12 24.91C96.81 24.91 99.06 24.01 100.88 22.2C102.7 20.39 103.61 18.09 103.61 15.29C103.61 12.49 102.7 10.18 100.88 8.36C99.06 6.54 96.81 5.63 94.12 5.63C91.43 5.63 89.18 6.54 87.36 8.36C85.54 10.18 84.63 12.49 84.63 15.29C84.63 18.09 85.54 20.4 87.36 22.2Z" fill="white"/>
<path d="M124.44 0.589966C127.27 0.589966 129.65 1.53997 131.58 3.44997C133.51 5.35997 134.48 7.68996 134.48 10.46C134.48 13.23 133.51 15.57 131.58 17.47C129.65 19.37 127.27 20.33 124.44 20.33H119.27V29.99H113.47V0.589966H124.44ZM124.44 14.91C125.67 14.91 126.69 14.48 127.51 13.63C128.32 12.78 128.73 11.72 128.73 10.46C128.73 9.16996 128.32 8.10997 127.51 7.26997C126.7 6.42997 125.68 6.00996 124.44 6.00996H119.27V14.91H124.44Z" fill="white"/>
<path d="M144.06 24.45H156.45V29.99H138.26V0.589966H156.24V6.12997H144.06V12.39H155.19V17.85H144.06V24.45Z" fill="white"/>
<path d="M190.34 29.99L188.47 24.7H176.39L174.63 29.99H168.37L178.66 0.589966H185.84L196.21 29.99H190.34ZM178.29 19.28H186.56L182.32 7.26997L178.29 19.28Z" fill="white"/>
<path d="M211.97 30.58C207.55 30.58 203.89 29.11 201.01 26.17C198.13 23.23 196.68 19.6 196.68 15.29C196.68 10.95 198.12 7.32 201.01 4.39C203.89 1.46 207.55 0 211.97 0C214.63 0 217.09 0.619995 219.34 1.87C221.59 3.12 223.35 4.79999 224.61 6.92999L219.61 9.83C218.88 8.51 217.85 7.49001 216.5 6.74001C215.16 6.00001 213.64 5.63 211.96 5.63C209.1 5.63 206.8 6.52999 205.05 8.31999C203.3 10.11 202.43 12.44 202.43 15.29C202.43 18.12 203.31 20.43 205.05 22.22C206.8 24.01 209.1 24.91 211.96 24.91C213.64 24.91 215.16 24.54 216.52 23.8C217.88 23.06 218.91 22.04 219.61 20.76L224.61 23.66C223.35 25.79 221.6 27.48 219.36 28.72C217.12 29.96 214.66 30.58 211.97 30.58Z" fill="white"/>
<path d="M241.83 30.58C237.41 30.58 233.75 29.11 230.87 26.17C227.99 23.23 226.54 19.6 226.54 15.29C226.54 10.95 227.98 7.32 230.87 4.39C233.76 1.46 237.41 0 241.83 0C244.49 0 246.95 0.619995 249.2 1.87C251.45 3.12 253.21 4.79999 254.47 6.92999L249.47 9.83C248.74 8.51 247.71 7.49001 246.36 6.74001C245.02 6.00001 243.5 5.63 241.82 5.63C238.96 5.63 236.66 6.52999 234.91 8.31999C233.16 10.11 232.29 12.44 232.29 15.29C232.29 18.12 233.17 20.43 234.91 22.22C236.65 24.01 238.96 24.91 241.82 24.91C243.5 24.91 245.02 24.54 246.38 23.8C247.74 23.06 248.77 22.04 249.47 20.76L254.47 23.66C253.21 25.79 251.46 27.48 249.22 28.72C246.98 29.96 244.52 30.58 241.83 30.58Z" fill="white"/>
<path d="M263.84 24.45H276.23V29.99H258.05V0.589966H276.03V6.12997H263.85V12.39H274.98V17.85H263.85V24.45H263.84Z" fill="white"/>
<path d="M290.34 30.58C287.43 30.58 284.98 29.93 282.99 28.63C281 27.33 279.6 25.56 278.79 23.32L283.75 20.42C284.9 23.42 287.15 24.91 290.51 24.91C292.13 24.91 293.32 24.62 294.08 24.03C294.84 23.44 295.21 22.7 295.21 21.8C295.21 20.76 294.75 19.96 293.82 19.38C292.9 18.81 291.24 18.18 288.86 17.51C287.54 17.12 286.43 16.73 285.52 16.33C284.61 15.94 283.7 15.41 282.79 14.76C281.88 14.11 281.19 13.27 280.71 12.26C280.23 11.25 280 10.08 280 8.73C280 6.07 280.95 3.95 282.84 2.37C284.73 0.789995 287 0 289.66 0C292.04 0 294.13 0.580006 295.94 1.74001C297.75 2.90001 299.15 4.52 300.16 6.59L295.29 9.39999C294.11 6.87999 292.24 5.62 289.66 5.62C288.46 5.62 287.51 5.89 286.83 6.44C286.15 6.99 285.8 7.69 285.8 8.56C285.8 9.48 286.18 10.23 286.95 10.81C287.72 11.38 289.2 12.01 291.38 12.68C292.28 12.96 292.95 13.18 293.42 13.33C293.88 13.48 294.51 13.72 295.31 14.04C296.11 14.36 296.72 14.66 297.16 14.94C297.59 15.22 298.09 15.6 298.65 16.07C299.21 16.55 299.64 17.04 299.93 17.54C300.22 18.04 300.48 18.65 300.69 19.37C300.9 20.08 301 20.86 301 21.7C301 24.42 300.01 26.57 298.04 28.17C296.08 29.78 293.51 30.58 290.34 30.58Z" fill="white"/>
<path d="M313.95 30.58C311.04 30.58 308.59 29.93 306.6 28.63C304.61 27.33 303.21 25.56 302.4 23.32L307.36 20.42C308.51 23.42 310.76 24.91 314.12 24.91C315.74 24.91 316.93 24.62 317.69 24.03C318.45 23.44 318.82 22.7 318.82 21.8C318.82 20.76 318.36 19.96 317.43 19.38C316.51 18.81 314.85 18.18 312.47 17.51C311.15 17.12 310.04 16.73 309.13 16.33C308.22 15.94 307.31 15.41 306.4 14.76C305.49 14.11 304.8 13.27 304.32 12.26C303.84 11.25 303.61 10.08 303.61 8.73C303.61 6.07 304.56 3.95 306.45 2.37C308.34 0.789995 310.61 0 313.27 0C315.65 0 317.74 0.580006 319.55 1.74001C321.36 2.90001 322.76 4.52 323.77 6.59L318.9 9.39999C317.72 6.87999 315.85 5.62 313.27 5.62C312.07 5.62 311.12 5.89 310.44 6.44C309.76 6.99 309.41 7.69 309.41 8.56C309.41 9.48 309.79 10.23 310.56 10.81C311.33 11.38 312.81 12.01 314.99 12.68C315.89 12.96 316.56 13.18 317.03 13.33C317.49 13.48 318.12 13.72 318.92 14.04C319.72 14.36 320.33 14.66 320.77 14.94C321.2 15.22 321.7 15.6 322.26 16.07C322.82 16.55 323.25 17.04 323.54 17.54C323.83 18.04 324.09 18.65 324.3 19.37C324.51 20.08 324.61 20.86 324.61 21.7C324.61 24.42 323.62 26.57 321.65 28.17C319.68 29.78 317.11 30.58 313.95 30.58Z" fill="white"/>
<path d="M65.73 38.19C68.56 38.19 70.94 39.14 72.87 41.05C74.8 42.96 75.77 45.29 75.77 48.06C75.77 50.83 74.8 53.17 72.87 55.07C70.94 56.97 68.56 57.93 65.73 57.93H60.56V67.59H54.76V38.19H65.73ZM65.73 52.52C66.96 52.52 67.98 52.09 68.8 51.24C69.61 50.39 70.02 49.33 70.02 48.07C70.02 46.78 69.61 45.72 68.8 44.88C67.99 44.04 66.97 43.62 65.73 43.62H60.56V52.52H65.73Z" fill="white"/>
<path d="M95.67 67.59L89.73 57.38H85.34V67.59H79.54V38.19H91.3C94.01 38.19 96.33 39.14 98.23 41.05C100.13 42.96 101.09 45.25 101.09 47.94C101.09 49.76 100.57 51.45 99.54 53C98.5 54.55 97.13 55.72 95.42 56.51L101.93 67.6H95.67V67.59ZM85.34 43.61V52.3H91.3C92.39 52.3 93.33 51.87 94.11 51.02C94.89 50.17 95.29 49.14 95.29 47.93C95.29 46.73 94.9 45.7 94.11 44.86C93.32 44.02 92.39 43.6 91.3 43.6H85.34V43.61Z" fill="white"/>
<path d="M129.74 63.75C126.77 66.7 123.16 68.18 118.9 68.18C114.64 68.18 111.04 66.7 108.09 63.75C105.13 60.8 103.66 57.18 103.66 52.89C103.66 48.6 105.14 44.99 108.09 42.03C111.04 39.08 114.65 37.6 118.9 37.6C123.15 37.6 126.77 39.08 129.74 42.03C132.71 44.98 134.19 48.6 134.19 52.89C134.19 57.18 132.7 60.8 129.74 63.75ZM112.14 59.8C113.96 61.61 116.21 62.51 118.9 62.51C121.59 62.51 123.84 61.61 125.66 59.8C127.48 57.99 128.39 55.69 128.39 52.89C128.39 50.09 127.48 47.78 125.66 45.96C123.84 44.14 121.59 43.23 118.9 43.23C116.21 43.23 113.96 44.14 112.14 45.96C110.32 47.78 109.41 50.09 109.41 52.89C109.41 55.69 110.32 58 112.14 59.8Z" fill="white"/>
<path d="M143.97 68.18C139.35 68.18 136.12 66.32 134.27 62.59L139.27 59.73C140.19 61.58 141.76 62.5 143.97 62.5C145.51 62.5 146.66 62.14 147.41 61.41C148.17 60.68 148.54 59.69 148.54 58.43V38.19H154.29V58.43C154.29 61.51 153.32 63.9 151.39 65.61C149.48 67.33 147 68.18 143.97 68.18Z" fill="white"/>
<path d="M165.31 62.05H177.7V67.59H159.51V38.19H177.49V43.73H165.31V49.99H176.44V55.45H165.31V62.05Z" fill="white"/>
<path d="M195.51 68.18C191.09 68.18 187.43 66.71 184.55 63.77C181.67 60.83 180.22 57.2 180.22 52.89C180.22 48.55 181.66 44.92 184.55 41.99C187.44 39.06 191.09 37.6 195.51 37.6C198.17 37.6 200.63 38.22 202.88 39.47C205.13 40.72 206.89 42.4 208.15 44.53L203.15 47.43C202.42 46.11 201.39 45.09 200.04 44.34C198.7 43.6 197.18 43.23 195.5 43.23C192.64 43.23 190.34 44.13 188.59 45.92C186.84 47.71 185.97 50.04 185.97 52.89C185.97 55.72 186.85 58.03 188.59 59.82C190.33 61.61 192.64 62.51 195.5 62.51C197.18 62.51 198.7 62.14 200.06 61.4C201.42 60.66 202.45 59.64 203.15 58.36L208.15 61.26C206.89 63.39 205.14 65.08 202.9 66.32C200.66 67.56 198.2 68.18 195.51 68.18Z" fill="white"/>
<path d="M231.04 38.19V43.73H223.1V67.59H217.3V43.73H209.4V38.19H231.04Z" fill="white"/>
</svg>
