
<svg version="1.1" id="Laag_1" xmlns="http://www.w3.org/2000/svg" xmlns:xlink="http://www.w3.org/1999/xlink" x="0px" y="0px"
	 viewBox="0 0 8503.94 3401.57" style="enable-background:new 0 0 8503.94 3401.57;" xml:space="preserve">
<style type="text/css">
	.st0{fill:#FFFFFF;}
</style>
<g>
	<path class="st0" d="M4417.15,1849.66c0-82.94-67.22-150.17-150.17-150.17c-82.94,0-150.16,67.23-150.16,150.17
		s67.22,150.17,150.16,150.17c0.88,0,1.76,0,2.64-0.06v-116.85h-32.27v-37.6h32.27v-27.68c0-32.1,19.59-49.57,48.22-49.57
		c13.73,0,25.51,0.99,28.93,1.47v33.55h-19.71c-15.54,0-18.6,7.39-18.6,18.25v23.93h37.25l-4.86,37.6h-32.39v111.16
		C4371.21,1976.02,4417.15,1918.23,4417.15,1849.66"/>
	<path class="st0" d="M4667.89,1850.87c0,16.13-13.08,29.21-29.21,29.21c-16.13,0-29.21-13.08-29.21-29.21
		c0-16.13,13.08-29.21,29.21-29.21C4654.81,1821.66,4667.89,1834.74,4667.89,1850.87"/>
	<path class="st0" d="M4685.46,1814.61c-5.8,0-10.51-4.71-10.51-10.52c0-5.8,4.71-10.51,10.51-10.51c5.81,0,10.52,4.71,10.52,10.51
		C4695.97,1809.9,4691.27,1814.61,4685.46,1814.61 M4638.68,1895.87c-24.85,0-45-20.14-45-45c0-24.85,20.15-45,45-45
		c24.86,0,45,20.15,45,45C4683.68,1875.73,4663.54,1895.87,4638.68,1895.87 M4706.99,1799.19c-1.41-3.81-3.65-7.25-6.55-10.07
		c-2.83-2.92-6.28-5.15-10.08-6.56c-3.08-1.19-7.73-2.62-16.26-3.01c-9.24-0.43-12.02-0.52-35.42-0.52s-26.16,0.09-35.41,0.51
		c-8.55,0.39-13.18,1.82-16.27,3.02c-3.81,1.41-7.25,3.64-10.07,6.56c-2.92,2.82-5.15,6.27-6.56,10.07
		c-1.19,3.09-2.62,7.73-3.02,16.27c-0.42,9.24-0.51,12.01-0.51,35.41c0,23.4,0.09,26.17,0.51,35.42c0.4,8.55,1.82,13.18,3.02,16.27
		c1.41,3.81,3.65,7.25,6.56,10.07c2.83,2.91,6.27,5.14,10.07,6.55c3.09,1.2,7.73,2.63,16.27,3.02c9.24,0.43,12.01,0.52,35.41,0.52
		s26.17-0.09,35.41-0.52c8.55-0.38,13.19-1.81,16.27-3.02c7.64-2.95,13.69-8.99,16.64-16.63c1.19-3.09,2.62-7.73,3.02-16.27
		c0.43-9.24,0.51-12.02,0.51-35.42c0-23.4-0.08-26.16-0.51-35.41C4709.63,1806.92,4708.2,1802.28,4706.99,1799.19"/>
	<path class="st0" d="M4725.78,1887c-0.42,9.34-1.9,15.7-4.07,21.27c-4.55,11.78-13.85,21.08-25.63,25.63
		c-5.57,2.17-11.95,3.64-21.27,4.07c-9.35,0.44-12.32,0.54-36.13,0.54c-23.79,0-26.78-0.1-36.13-0.54
		c-9.32-0.43-15.69-1.9-21.27-4.07c-5.85-2.2-11.15-5.65-15.52-10.1c-4.46-4.37-7.91-9.67-10.1-15.52
		c-2.17-5.57-3.65-11.94-4.07-21.27c-0.44-9.35-0.54-12.33-0.54-36.13s0.1-26.78,0.54-36.13c0.42-9.33,1.9-15.69,4.07-21.27
		c2.2-5.84,5.65-11.15,10.1-15.52c4.37-4.45,9.67-7.91,15.52-10.1c5.58-2.17,11.94-3.64,21.27-4.07c9.35-0.43,12.33-0.54,36.13-0.54
		c23.79,0,26.78,0.11,36.13,0.54c9.33,0.43,15.69,1.9,21.27,4.07c5.85,2.2,11.15,5.65,15.52,10.1c4.46,4.38,7.91,9.68,10.1,15.52
		c2.17,5.58,3.65,11.95,4.08,21.27c0.43,9.35,0.53,12.33,0.53,36.13S4726.21,1877.65,4725.78,1887 M4638.68,1698.27
		c-84.27,0-152.6,68.33-152.6,152.6s68.33,152.6,152.6,152.6c84.27,0,152.6-68.33,152.6-152.6S4722.95,1698.27,4638.68,1698.27"/>
	<path class="st0" d="M5100.06,1930.18h-37.16v-59.82c0-15.04-5.39-25.29-18.83-25.29c-10.27,0-16.38,6.92-19.07,13.6
		c-0.98,2.39-1.23,5.73-1.23,9.07v62.44h-37.16c0,0,0.49-101.33,0-111.82h37.16v15.84c4.94-7.62,13.78-18.46,33.49-18.46
		c24.45,0,42.79,15.98,42.79,50.32V1930.18z M4947.46,1803.09h-0.24c-12.47,0-20.53-8.59-20.53-19.31
		c0-10.98,8.31-19.33,21.02-19.33c12.72,0,20.54,8.35,20.79,19.33C4968.49,1794.51,4960.42,1803.09,4947.46,1803.09
		 M4966.04,1930.18h-37.17v-111.81h37.17V1930.18z M5010.39,1699.48c-84.27,0-152.6,68.33-152.6,152.6s68.33,152.6,152.6,152.6
		s152.6-68.33,152.6-152.6S5094.66,1699.48,5010.39,1699.48"/>
</g>
</svg>
