<svg width="355" height="68" viewBox="0 0 355 68" fill="none" xmlns="http://www.w3.org/2000/svg">
<path d="M38.08 67.3717H29.17L19.04 41.2248L8.90999 67.3717H0L13.85 31.8311H24.24L38.08 67.3717Z" fill="white"/>
<path d="M38.08 36.1292H29.17L19.04 9.98218L8.90999 36.1292H0L13.85 0.58844H24.24L38.08 36.1292Z" fill="white"/>
<path d="M74.0901 29.9164L72.2201 24.6411H60.1401L58.3801 29.9164H52.1201L62.4101 0.598328H69.5901L79.9601 29.9164H74.0901ZM62.0301 19.2363H70.3001L66.0601 7.24973L62.0301 19.2363Z" fill="white"/>
<path d="M88.6201 24.382H101.01V29.9065H82.8201V0.58844H100.8V6.11298H88.6201V12.3556H99.7501V17.8004H88.6201V24.382Z" fill="white"/>
<path d="M121.21 29.9164L115.27 19.7349H110.88V29.9164H105.08V0.598328H116.84C119.55 0.598328 121.87 1.54567 123.77 3.45035C125.67 5.35503 126.63 7.63866 126.63 10.3212C126.63 12.1361 126.11 13.8214 125.08 15.3671C124.04 16.9128 122.67 18.0795 120.96 18.8673L127.47 29.9264H121.21V29.9164ZM110.88 5.99323V14.659H116.84C117.93 14.659 118.87 14.2303 119.65 13.3826C120.43 12.535 120.83 11.5078 120.83 10.3012C120.83 9.10455 120.44 8.07741 119.65 7.23975C118.86 6.40209 117.93 5.98325 116.84 5.98325H110.88V5.99323Z" fill="white"/>
<path d="M130.87 0.598328H136.67V29.9164H130.87V0.598328Z" fill="white"/>
<path d="M161.45 29.9164L159.58 24.6411H147.5L145.74 29.9164H139.48L149.77 0.598328H156.95L167.32 29.9164H161.45ZM149.39 19.2363H157.66L153.42 7.24973L149.39 19.2363Z" fill="white"/>
<path d="M175.98 24.382H187.19V29.9065H170.18V0.58844H175.98V24.382Z" fill="white"/>
<path d="M220.29 29.9164L218.42 24.6411H206.34L204.58 29.9164H198.32L208.61 0.598328H215.79L226.16 29.9164H220.29ZM208.23 19.2363H216.5L212.26 7.24973L208.23 19.2363Z" fill="white"/>
<path d="M241.91 30.4948C237.49 30.4948 233.83 29.0289 230.95 26.0971C228.07 23.1653 226.62 19.5454 226.62 15.2474C226.62 10.9195 228.06 7.29962 230.95 4.37778C233.84 1.45595 237.49 0 241.91 0C244.57 0 247.03 0.618268 249.28 1.86478C251.53 3.1113 253.29 4.78662 254.55 6.91068L249.55 9.80263C248.82 8.48631 247.79 7.46912 246.44 6.72121C245.1 5.98327 243.58 5.61432 241.9 5.61432C239.04 5.61432 236.74 6.51181 234.99 8.29683C233.24 10.0818 232.37 12.4054 232.37 15.2474C232.37 18.0696 233.25 20.3731 234.99 22.1581C236.73 23.9431 239.04 24.8406 241.9 24.8406C243.58 24.8406 245.1 24.4717 246.46 23.7337C247.82 22.9958 248.85 21.9786 249.55 20.7022L254.55 23.5941C253.29 25.7182 251.54 27.4035 249.3 28.64C247.07 29.8766 244.6 30.4948 241.91 30.4948Z" fill="white"/>
<path d="M271.78 30.4948C267.36 30.4948 263.7 29.0289 260.82 26.0971C257.94 23.1653 256.49 19.5454 256.49 15.2474C256.49 10.9195 257.93 7.29962 260.82 4.37778C263.71 1.45595 267.36 0 271.78 0C274.44 0 276.9 0.618268 279.15 1.86478C281.4 3.1113 283.16 4.78662 284.42 6.91068L279.42 9.80263C278.69 8.48631 277.66 7.46912 276.31 6.72121C274.97 5.98327 273.45 5.61432 271.77 5.61432C268.91 5.61432 266.61 6.51181 264.86 8.29683C263.11 10.0818 262.24 12.4054 262.24 15.2474C262.24 18.0696 263.12 20.3731 264.86 22.1581C266.6 23.9431 268.91 24.8406 271.77 24.8406C273.45 24.8406 274.97 24.4717 276.33 23.7337C277.69 22.9958 278.72 21.9786 279.42 20.7022L284.42 23.5941C283.16 25.7182 281.41 27.4035 279.17 28.64C276.93 29.8766 274.47 30.4948 271.78 30.4948Z" fill="white"/>
<path d="M293.79 24.382H306.18V29.9065H287.99V0.58844H305.97V6.11298H293.79V12.3556H304.92V17.8004H293.79V24.382Z" fill="white"/>
<path d="M320.29 30.4948C317.38 30.4948 314.93 29.8466 312.94 28.5502C310.95 27.2539 309.55 25.4888 308.74 23.255L313.7 20.3631C314.85 23.3548 317.1 24.8406 320.46 24.8406C322.08 24.8406 323.27 24.5514 324.03 23.9631C324.79 23.3747 325.16 22.6368 325.16 21.7393C325.16 20.7022 324.7 19.9044 323.77 19.326C322.85 18.7576 321.19 18.1294 318.81 17.4612C317.49 17.0723 316.38 16.6834 315.47 16.2845C314.56 15.8956 313.65 15.3671 312.74 14.7189C311.83 14.0707 311.14 13.233 310.66 12.2259C310.18 11.2187 309.95 10.052 309.95 8.70572C309.95 6.05313 310.9 3.93899 312.79 2.36339C314.68 0.787794 316.95 0 319.61 0C321.99 0 324.08 0.578374 325.89 1.73514C327.7 2.89191 329.1 4.50743 330.11 6.57167L325.24 9.37383C324.06 6.86085 322.19 5.60434 319.61 5.60434C318.41 5.60434 317.46 5.87359 316.78 6.42206C316.1 6.97053 315.75 7.66857 315.75 8.53615C315.75 9.45358 316.13 10.2015 316.9 10.7799C317.67 11.3483 319.15 11.9765 321.33 12.6447C322.23 12.9239 322.9 13.1433 323.37 13.2929C323.83 13.4425 324.46 13.6818 325.26 14.0009C326.06 14.32 326.67 14.6192 327.11 14.8984C327.54 15.1776 328.04 15.5565 328.6 16.0252C329.16 16.5039 329.59 16.9926 329.88 17.4912C330.17 17.9898 330.43 18.598 330.64 19.316C330.85 20.024 330.95 20.8019 330.95 21.6395C330.95 24.352 329.96 26.496 327.99 28.0916C326.02 29.707 323.45 30.4948 320.29 30.4948Z" fill="white"/>
<path d="M343.89 30.4948C340.98 30.4948 338.53 29.8466 336.54 28.5502C334.55 27.2539 333.15 25.4888 332.34 23.255L337.3 20.3631C338.45 23.3548 340.7 24.8406 344.06 24.8406C345.68 24.8406 346.87 24.5514 347.63 23.9631C348.39 23.3747 348.76 22.6368 348.76 21.7393C348.76 20.7022 348.3 19.9044 347.37 19.326C346.45 18.7576 344.79 18.1294 342.41 17.4612C341.09 17.0723 339.98 16.6834 339.07 16.2845C338.16 15.8956 337.25 15.3671 336.34 14.7189C335.43 14.0707 334.74 13.233 334.26 12.2259C333.78 11.2187 333.55 10.052 333.55 8.70572C333.55 6.05313 334.5 3.93899 336.39 2.36339C338.28 0.787794 340.55 0 343.21 0C345.59 0 347.68 0.578374 349.49 1.73514C351.3 2.89191 352.7 4.50743 353.71 6.57167L348.84 9.37383C347.66 6.86085 345.79 5.60434 343.21 5.60434C342.01 5.60434 341.06 5.87359 340.38 6.42206C339.7 6.97053 339.35 7.66857 339.35 8.53615C339.35 9.45358 339.73 10.2015 340.5 10.7799C341.27 11.3483 342.75 11.9765 344.93 12.6447C345.83 12.9239 346.5 13.1433 346.97 13.2929C347.43 13.4425 348.06 13.6818 348.86 14.0009C349.66 14.32 350.27 14.6192 350.71 14.8984C351.14 15.1776 351.64 15.5565 352.2 16.0252C352.76 16.5039 353.19 16.9926 353.48 17.4912C353.77 17.9898 354.03 18.598 354.24 19.316C354.45 20.024 354.55 20.8019 354.55 21.6395C354.55 24.352 353.56 26.496 351.59 28.0916C349.62 29.707 347.05 30.4948 343.89 30.4948Z" fill="white"/>
<path d="M64.8 68.0001C61.89 68.0001 59.44 67.3519 57.45 66.0555C55.46 64.7591 54.06 62.994 53.25 60.7603L58.21 57.8684C59.36 60.86 61.61 62.3459 64.97 62.3459C66.59 62.3459 67.78 62.0567 68.54 61.4683C69.3 60.88 69.67 60.142 69.67 59.2446C69.67 58.2075 69.21 57.4096 68.28 56.8313C67.36 56.2628 65.7 55.6346 63.32 54.9665C62 54.5776 60.89 54.1887 59.98 53.7898C59.07 53.4009 58.16 52.8723 57.25 52.2241C56.34 51.5759 55.65 50.7383 55.17 49.7311C54.69 48.7239 54.46 47.5572 54.46 46.211C54.46 43.5584 55.41 41.4443 57.3 39.8687C59.19 38.2931 61.46 37.5053 64.12 37.5053C66.5 37.5053 68.59 38.0837 70.4 39.2405C72.21 40.3972 73.61 42.0127 74.62 44.0769L69.75 46.8791C68.57 44.3661 66.7 43.1096 64.12 43.1096C62.92 43.1096 61.97 43.3789 61.29 43.9274C60.61 44.4758 60.26 45.1739 60.26 46.0415C60.26 46.9589 60.64 47.7068 61.41 48.2852C62.18 48.8536 63.66 49.4818 65.84 50.15C66.74 50.4292 67.41 50.6485 67.88 50.7981C68.34 50.9477 68.97 51.1871 69.77 51.5062C70.57 51.8253 71.18 52.1245 71.62 52.4037C72.05 52.6829 72.55 53.0618 73.11 53.5305C73.67 54.0091 74.1 54.4978 74.39 54.9964C74.68 55.495 74.94 56.1033 75.15 56.8213C75.36 57.5294 75.46 58.3071 75.46 59.1448C75.46 61.8572 74.47 64.0013 72.5 65.5968C70.54 67.2023 67.97 68.0001 64.8 68.0001Z" fill="white"/>
<path d="M101.22 38.0935L91.1401 55.9735V67.4116H85.3901V55.9835L75.3501 38.0935H81.9001L88.2701 50.2994L94.6701 38.0935H101.22Z" fill="white"/>
<path d="M112.39 68C109.48 68 107.03 67.3518 105.04 66.0554C103.05 64.759 101.65 62.994 100.84 60.7602L105.8 57.8683C106.95 60.86 109.2 62.3458 112.56 62.3458C114.18 62.3458 115.37 62.0566 116.13 61.4683C116.89 60.8799 117.26 60.142 117.26 59.2445C117.26 58.2074 116.8 57.4096 115.87 56.8312C114.95 56.2628 113.29 55.6345 110.91 54.9664C109.59 54.5775 108.48 54.1886 107.57 53.7897C106.66 53.4008 105.75 52.8723 104.84 52.2241C103.93 51.5759 103.24 50.7382 102.76 49.731C102.28 48.7239 102.05 47.5571 102.05 46.2109C102.05 43.5583 103 41.4442 104.89 39.8686C106.78 38.293 109.05 37.5052 111.71 37.5052C114.09 37.5052 116.18 38.0836 117.99 39.2404C119.8 40.3972 121.2 42.0126 122.21 44.0769L117.34 46.879C116.16 44.366 114.29 43.1096 111.71 43.1096C110.51 43.1096 109.56 43.3788 108.88 43.9273C108.2 44.4758 107.85 45.1738 107.85 46.0414C107.85 46.9588 108.23 47.7067 109 48.2851C109.77 48.8535 111.25 49.4818 113.43 50.1499C114.33 50.4291 115 50.6485 115.47 50.7981C115.93 50.9476 116.56 51.187 117.36 51.5061C118.16 51.8252 118.77 52.1244 119.21 52.4036C119.64 52.6828 120.14 53.0617 120.7 53.5304C121.26 54.0091 121.69 54.4977 121.98 54.9964C122.27 55.495 122.53 56.1033 122.74 56.8213C122.95 57.5293 123.05 58.3071 123.05 59.1447C123.05 61.8572 122.06 64.0012 120.09 65.5967C118.12 67.2023 115.55 68 112.39 68Z" fill="white"/>
<path d="M145.23 38.0935V43.618H137.29V67.4116H131.49V43.618H123.59V38.0935H145.23Z" fill="white"/>
<path d="M154.26 61.8772H166.65V67.4017H148.46V38.0836H166.44V43.6082H154.26V49.8507H165.39V55.2955H154.26V61.8772Z" fill="white"/>
<path d="M199.5 38.0935V67.4116H193.75V48.3947L185.46 61.9967L184.78 62.0166L176.53 48.4646V67.4116H170.73V38.0935H176.69L185.12 51.9348L193.51 38.0935H199.5Z" fill="white"/>
<path d="M214.53 68C211.62 68 209.17 67.3518 207.18 66.0554C205.19 64.759 203.79 62.994 202.98 60.7602L207.94 57.8683C209.09 60.86 211.34 62.3458 214.7 62.3458C216.32 62.3458 217.51 62.0566 218.27 61.4683C219.03 60.8799 219.4 60.142 219.4 59.2445C219.4 58.2074 218.94 57.4096 218.01 56.8312C217.09 56.2628 215.43 55.6345 213.05 54.9664C211.73 54.5775 210.62 54.1886 209.71 53.7897C208.8 53.4008 207.89 52.8723 206.98 52.2241C206.07 51.5759 205.38 50.7382 204.9 49.731C204.42 48.7239 204.19 47.5571 204.19 46.2109C204.19 43.5583 205.14 41.4442 207.03 39.8686C208.92 38.293 211.19 37.5052 213.85 37.5052C216.23 37.5052 218.32 38.0836 220.13 39.2404C221.94 40.3972 223.34 42.0126 224.35 44.0769L219.48 46.879C218.3 44.366 216.43 43.1096 213.85 43.1096C212.65 43.1096 211.7 43.3788 211.02 43.9273C210.34 44.4758 209.99 45.1738 209.99 46.0414C209.99 46.9588 210.37 47.7067 211.14 48.2851C211.91 48.8535 213.39 49.4818 215.57 50.1499C216.47 50.4291 217.14 50.6485 217.61 50.7981C218.07 50.9476 218.7 51.187 219.5 51.5061C220.3 51.8252 220.91 52.1244 221.35 52.4036C221.78 52.6828 222.28 53.0617 222.84 53.5304C223.4 54.0091 223.83 54.4977 224.12 54.9964C224.41 55.495 224.67 56.1033 224.88 56.8213C225.09 57.5293 225.19 58.3071 225.19 59.1447C225.19 61.8572 224.2 64.0012 222.23 65.5967C220.26 67.2023 217.69 68 214.53 68Z" fill="white"/>
</svg>
